<?xml version="1.0" standalone="no"?>
<!DOCTYPE svg PUBLIC "-//W3C//DTD SVG 20010904//EN"
 "http://www.w3.org/TR/2001/REC-SVG-20010904/DTD/svg10.dtd">
<svg version="1.0" xmlns="http://www.w3.org/2000/svg"
 width="700.000000pt" height="700.000000pt" viewBox="0 0 700.000000 700.000000"
 preserveAspectRatio="xMidYMid meet">
<metadata>
Created by potrace 1.14, written by Peter Selinger 2001-2017
</metadata>
<g transform="translate(0.000000,700.000000) scale(0.100000,-0.100000)"
fill="#000000" stroke="none">
<path d="M0 3500 l0 -3500 3500 0 3500 0 0 3500 0 3500 -3500 0 -3500 0 0
-3500z m2235 1878 c13 -59 279 -1713 309 -1928 19 -135 47 -353 61 -485 15
-132 29 -247 32 -255 3 -8 17 66 30 165 50 385 121 779 288 1613 96 477 177
877 180 890 l5 22 360 0 c197 0 361 -4 364 -8 3 -5 73 -384 156 -843 84 -459
165 -905 181 -993 34 -191 93 -587 110 -748 7 -65 14 -116 15 -115 2 1 10 74
19 162 28 274 80 618 240 1575 85 509 157 935 160 948 l5 22 451 0 451 0 -5
-22 c-3 -13 -164 -858 -356 -1878 -193 -1020 -353 -1865 -356 -1877 l-5 -23
-515 0 -515 0 -5 23 c-15 64 -297 1626 -319 1767 -14 91 -35 260 -47 375 -21
206 -37 293 -38 212 -2 -69 -31 -330 -67 -581 -27 -190 -290 -1653 -319 -1773
l-5 -23 -510 0 -510 0 -5 23 c-3 12 -165 857 -361 1877 -195 1020 -358 1865
-361 1878 l-5 22 441 0 441 0 5 -22z"/>
</g>
</svg>
