<svg version="1" xmlns="http://www.w3.org/2000/svg" width="933.333" height="933.333" viewBox="0 0 700.000000 700.000000"><path d="M0 350v350h700V0H0v350zm240-208.7c0 4.3 21.5 278.5 22.1 282.5.1.4 1.2-13 2.4-29.8 4.2-56.2 11.4-125.2 20.6-197 2.7-21.7 5.5-43.4 6.1-48.3l1.1-8.7h113.5l.6 4.2c1.7 11.6 10.8 122.9 17.8 217.5 2.9 39.2 5.4 71 5.6 70.8.2-.2 1-9.7 1.8-21.2 5.6-83.8 15.7-181.8 26-252.6 1.3-9.3 2.4-17.3 2.4-17.8s22-.9 53-.9c36.2 0 53 .3 53 1 0 .6-10.8 94.6-24 208.8-13.2 114.3-24 208.3-24 209 0 .9-14.8 1.2-68.3 1.2h-68.3l-2.8-14.6c-8.8-47.1-19.1-115.3-26.2-172.6-2.1-16.9-3.9-30.6-4-30.5-.2.1-1 5.9-1.9 12.7-4.6 36.1-26.9 196.3-28.1 202.3l-.6 2.7h-67.4c-53.1 0-67.5-.3-67.9-1.3-.3-1.1-48.6-416.2-48.5-418 0-.4 23.9-.7 53-.7 41.7 0 53 .3 53 1.3z"/></svg>